# xmcd CD database file
#
# Track frame offsets:
#	150
#	20325
#	38072
#	65070
#	97832
#	127632
#	145757
#	174832
#	201045
#	221247
#
# Disc length: 3244 seconds
#
# Revision: 0
# Processed by: cddbd v1.4PL0 Copyright (c) Steve Scherf et al.
# Submitted via: CDex 1.50beta10
#
DISCID=800caa0a
DTITLE=Brendan Power - Digging In
DYEAR=1991
DGENRE=Blues
TTITLE0=Heatseeker
TTITLE1=Space Harp
TTITLE2=The Swan
TTITLE3=Onion Blues
TTITLE4=Lorraines Dream
TTITLE5=The Breakup Breakdown
TTITLE6=Hakanoa Hideaway - In the Mountains of Holland
TTITLE7=Past Tense
TTITLE8=V for Blues
TTITLE9=He Ain't Heavy (He's My Brother)
EXTD=YEAR: 1991
EXTT0=
EXTT1=
EXTT2=
EXTT3=
EXTT4=
EXTT5=
EXTT6=
EXTT7=
EXTT8=
EXTT9=
PLAYORDER=
